<svg id="Layer_1" data-name="Layer 1" xmlns="http://www.w3.org/2000/svg" viewBox="0 0 902.85 891.31"><defs><style>.cls-1{fill:#f2ae5d;}.cls-2{fill:#fbeddc;}.cls-3{fill:#2d65f1;}.cls-4{fill:#f2ae5f;}.cls-5{fill:#fbecdb;}.cls-6{fill:#f2af5f;}.cls-7{fill:#fefefd;}.cls-8{fill:#f6ce9c;}.cls-9{fill:#020201;}.cls-10{fill:#020202;}.cls-11{fill:#ce8536;}.cls-12{fill:#ec6f67;}.cls-13{fill:#010101;}.cls-14{fill:#040303;}.cls-15{fill:#3e1206;}.cls-16{fill:#f3b6b3;}.cls-17{fill:#3e1307;}.cls-18{fill:#3a3734;}</style></defs><path class="cls-1" d="M1023.43,330.86c31.43-31.94,56.35-68.88,81.17-105.9q9.86-14.7,19.79-29.33a310.29,310.29,0,0,1,62.19,12.58,62.15,62.15,0,0,1-2.6,6.43c-15.31,28.77-30.14,57.82-46.25,86.14-9.82,17.27-21.6,33.43-32.58,50-2.12,3.21-4.63,6.16-7.18,9.52,2.72,1.7,4.65,3,6.64,4.13A281.69,281.69,0,0,1,1184.66,434c20.19,25.66,35.69,54.05,45.35,85.4,1.28,4.18,2.8,5.22,7,3.35,40.65-17.95,63.26-49.06,68.25-93.12q2.26-20,4.09-40c1.44-15.84,2.93-31.68,3.83-47.55.81-14.44.87-28.92,1.25-43.38,1.53,1.73,3.13,3.4,4.57,5.19,5,6.14,9.88,12.32,14.82,18.49-1.56,25.41-2.52,50.87-4.85,76.21-2.09,22.62-2.67,45.6-10.77,67.29-12.74,34.13-35.22,59.15-69,73.41-4,1.67-8.16,2.71-12.16,4,1.56,11.11,3.3,22.07,4.57,33.09a207.24,207.24,0,0,1,1.42,22.4c0,4,1.26,6.26,4.84,8.1,20.6,10.58,38.68,24.65,55.24,40.74,3.22,3.13,6.15,6.56,9.23,9.84,11.82,12.59,12.32,22.1,1.73,35.92,4.69,6.33,9.7,12.52,14.06,19.13,6.35,9.63,5.36,21.21-2.8,28.71-4,3.71-9.29,6.08-14.86,9.6-.42,9.38-5.4,16.79-16,20-1.24.37-2.44,2.12-2.92,3.49-12.81,37.22-36.56,66.59-66.18,91.51-48.67,41-105.47,65.9-166,83.17a603.87,603.87,0,0,1-103.64,19.76c-29.48,3.05-59.08,4.13-88.68,2-41-2.93-81.08-10.17-119.09-26.57C718,931.34,691.35,914,670.15,888.82a6.65,6.65,0,0,0-4.79-2.09c-9.24.66-16.32-2.73-20.75-10.85-1.35-2.47-2.68-3.1-5.37-3-18.93.57-30-13.32-25.31-31.77,1.63-6.44,3.72-12.77,5.73-19.55-1-.61-2.28-1.32-3.48-2.07-9.38-5.85-13.33-16.38-9.64-26.81a227.6,227.6,0,0,1,45.21-77c2.78-3.1,3.29-5.7,2.07-9.77-5.13-17.16-9.77-34.47-14.89-52.81-4.49,0-10.59.49-16.59-.08-36.05-3.43-65-20-87.44-48.19-12.15-15.26-19.76-33.15-28.18-50.48-11-22.59-21.13-45.59-31.6-68.42a44.34,44.34,0,0,1-1.59-4.72q4.47-14.56,8.92-29.13a11.05,11.05,0,0,1,.71,1.31c15,38.65,33,75.94,51.91,112.8,6.08,11.85,12.47,23.54,21.85,33.19,15.92,16.37,34.93,27.47,57.35,32.14,7.51,1.56,15.25,2,24,3.11-4.68-77.5,19.38-144.32,67.47-203-1.45-1-2.33-1.81-3.34-2.37-29.34-16.38-54.57-38.22-79.75-60.13-9.89-8.6-19.82-17.15-29.61-25.87-7.81-6.95-15.42-14.12-23.12-21.19,16.57-13.42,34.8-24.24,53.53-34.28,22,15.41,44,31,66.14,46.16,23.18,15.85,47.05,30.56,72.54,42.5,1.19.55,2.44,1,3.67,1.48,6.93,11.94,13.79,23.93,20.84,35.8,5.35,9,13.15,15.51,23.48,17.05,9.12,1.37,18.53.9,27.82,1,2.82,0,4.5.69,5.89,3.33,4.44,8.37,9.21,16.58,13.84,24.86q23.86,42.72,47.76,85.42a24.92,24.92,0,0,0,25.76,12.48A25.47,25.47,0,0,0,952.39,538c.91-4.56,1.46-9.19,2.13-13.79q8.12-56.2,16.19-112.4c.41-2.88,1.55-4.75,4.62-5.62,5.44-1.54,10.8-3.36,16.1-5.32,13.11-4.88,21.94-14.12,24.9-27.74C1019.36,359.15,1021.12,345,1023.43,330.86Zm-32.7,203.23.34.09c-.66.37-1.61.57-1.94,1.13-9.28,15.75-13.66,32.7-11.94,51,.54,5.7,1.66,11.35,2.56,17.27-1.8,0-3.09,0-4.37,0-11.58.29-23.28-.43-34.7,1.08-22.58,3-42.24,13.23-60,27.24l-3.86-5.11a65.55,65.55,0,0,0-.91-6.89c-7.84-33.06-40.69-58.75-78.68-55.24C761,568,730.27,599.78,731.06,636.22c.33,15.14,4.1,30.23,6.52,45.31,1.26,7.88,4.46,10.38,12.48,10.5q33.21.51,66.4,1c7.23.1,14.46,0,22.07,0-7.73,17.88-31,34.63-51.94,36.82-11.37,1.19-22.9.89-34.37,1-17,.23-33.94.92-50.31,6.06-18.16,5.69-30.28,17.19-31,37a131.45,131.45,0,0,0,2.68,33.07c7.7,35,28.77,61.33,56.31,83,29.21,22.92,62.44,37.87,97.91,48,41,11.77,82.89,17.7,125.59,15,19-1.21,38.28-2.64,56.79-6.8,75.06-16.83,140.13-52.25,193.59-108.09,18.81-19.63,34.22-41.66,44.58-66.94,13.09-31.93,15.76-64.46,4.08-97.42-5.52-15.58-15.49-27.21-32.74-29.26-8.6-1-17.92-.92-26.19,1.32-18.39,5-36.49,11.21-54.4,17.76-20.4,7.46-40.29,7.61-60-1.72-6.83-3.23-13.27-7.09-18.56-13.16,28-11.19,55.54-22.14,83-33.12,9-3.6,11.34-8.11,9.53-17.51-1.94-10.12-4-20.23-5.55-30.41-7.69-50.35-55.46-83.11-104.8-71.43-5.9,1.4-11.39,4.6-17.07,7l.07-.21-2.37.87q-22.69,6.19-31.54,28C991.42,532.62,991.08,533.36,990.73,534.09Zm27.78-95c0,9.83,7.09,16.91,17,16.78,3.13,0,6.24-.8,9.37-.92,20-.72,39.72,1,59.11,6.22,8.9,2.41,18.93-5.13,19.53-14.28.69-10.64-4.29-17.15-15.44-19.87a211.07,211.07,0,0,0-73-5.16C1024.23,423,1018.5,428.91,1018.51,439.1Zm-287.92,125c3.84-1.66,8.09-2.74,11.46-5.08a183,183,0,0,1,58.42-27.19,15.65,15.65,0,0,0,11.11-9.94c2.23-6,1.68-11.78-2.4-16.94-5.15-6.51-12.12-7.21-19.43-5.41-17.89,4.39-34.58,11.89-50.52,20.93A152.42,152.42,0,0,0,718.48,535c-5.07,4.13-6.31,12.09-3.5,17.89C718,559.06,722.57,563.35,730.59,564.06Z" transform="translate(-431.36 -80.6)"/><path class="cls-2" d="M1023.43,330.86c-2.31,14.09-4.07,28.29-7.1,42.22-3,13.62-11.79,22.86-24.9,27.74-5.3,2-10.66,3.78-16.1,5.32-3.07.87-4.21,2.74-4.62,5.62q-8.07,56.21-16.19,112.4c-.67,4.6-1.22,9.23-2.13,13.79a25.47,25.47,0,0,1-21.24,19.89,24.92,24.92,0,0,1-25.76-12.48q-24-42.66-47.76-85.42c-4.63-8.28-9.4-16.49-13.84-24.86-1.39-2.64-3.07-3.31-5.89-3.33-9.29-.06-18.7.41-27.82-1-10.33-1.54-18.13-8-23.48-17.05-7.05-11.87-13.91-23.86-20.84-35.8l33.94-20c6,10.33,12.15,20.62,18.06,31,1.66,2.91,3.55,4.23,7.08,4q18.13-1.17,36.3-1.67a6.15,6.15,0,0,1,4.49,2.7C878,415,890.22,436.18,902.5,457.31c5.39,9.29,10.84,18.55,16.76,28.66,1.58-9.56,3-18,4.37-26.49,4.28-26,8.5-52,13-78a7.17,7.17,0,0,1,3.92-4.61c9.47-3.55,19-7.13,28.72-9.81,6.87-1.89,10.57-4.95,11.12-12.57.74-10.22,2.71-20.35,4.15-30.52q17.06,2.93,34.1,5.85C1020.23,330.07,1021.82,330.5,1023.43,330.86Z" transform="translate(-431.36 -80.6)"/><path class="cls-3" d="M1333.87,322.36c-4.94-6.17-9.85-12.35-14.82-18.49-1.44-1.79-3-3.46-4.57-5.19-1-23.26-1.48-46.58-3.31-69.78-1.77-22.58-6.11-44.79-14.76-65.91-5.57-13.58-12.91-25.87-25.45-34.33-8.69-5.87-17.62-6.14-26-.15a96,96,0,0,0-16.28,14.57c-13.78,15.71-23.92,33.91-34.17,52-2.52,4.44-5.26,8.75-7.9,13.12a310.29,310.29,0,0,0-62.19-12.58c8.94-13.22,17.64-26.61,26.86-39.62,13.57-19.16,27.62-38,45.35-53.61a133.86,133.86,0,0,1,23.14-16.3c13.77-7.65,27.89-7.13,41.93.35,22.21,11.84,36.35,30.73,46.57,53,12.77,27.82,18.61,57.45,22.1,87.64C1334,258.74,1334.75,290.52,1333.87,322.36Z" transform="translate(-431.36 -80.6)"/><path class="cls-3" d="M623.41,287.8c-18.73,10-37,20.86-53.53,34.28-1.46-1.06-3-2.06-4.39-3.18C552.62,308.65,540,298,526.83,288.22c-11.46-8.53-23.54-16.27-37.74-19.7-12.39-3-20.8.43-27.69,11.22-7.92,12.39-10,26.32-10.24,40.57a205.31,205.31,0,0,0,8.56,60.57c7,23.91,15.1,47.47,22.73,71.19q-4.45,14.56-8.92,29.13c-7.45-19.9-15.44-39.61-22.21-59.74-9.34-27.78-16.14-56.26-18.83-85.53-2.52-27.44-1.56-54.56,10.37-80.2a78.88,78.88,0,0,1,19.29-26.42c13.53-11.86,29.28-11.94,45.62-7.81,21.54,5.45,40.75,16.07,59.26,27.87s36.17,24.24,54.2,36.44A18.56,18.56,0,0,1,623.41,287.8Z" transform="translate(-431.36 -80.6)"/><path class="cls-4" d="M984.51,323.94c-1.44,10.17-3.41,20.3-4.15,30.52-.55,7.62-4.25,10.68-11.12,12.57-9.74,2.68-19.25,6.26-28.72,9.81a7.17,7.17,0,0,0-3.92,4.61c-4.47,26-8.69,52-13,78-1.4,8.47-2.79,16.93-4.37,26.49-5.92-10.11-11.37-19.37-16.76-28.66C890.22,436.18,878,415,865.63,394a6.15,6.15,0,0,0-4.49-2.7q-18.17.51-36.3,1.67c-3.53.23-5.42-1.09-7.08-4-5.91-10.4-12-20.69-18.06-31,14.52-6.32,29-12.71,43.58-18.9,3.33-1.41,7-2.13,10.43-3.17l10.4,17.86-43.87,1.91c3.62,6.22,6.41,11.32,9.58,16.18.68,1.06,2.72,1.79,4.1,1.74,12.29-.4,24.56-1.17,36.85-1.41a7.89,7.89,0,0,1,5.81,3.22c6.75,11.08,13.11,22.41,19.62,33.64,4.12,7.11,8.28,14.21,12.92,22.15,3.61-21.88,7.18-42.6,10.32-63.39.53-3.53,2-4.75,5-5.71,11.21-3.68,22.4-7.43,33.51-11.4,1.74-.63,4-2.36,4.33-3.94,1.2-5.49,1.66-11.14,2.4-16.73l.36-.51-.5.37c-2.38.55-4.83.92-7.15,1.68-11.08,3.62-22.12,7.35-34,11.31l3.74-20.54Z" transform="translate(-431.36 -80.6)"/><path class="cls-5" d="M927.13,322.26l-3.74,20.54c11.86-4,22.9-7.69,34-11.31,2.32-.76,4.77-1.13,7.15-1.68l.14.14c-.74,5.59-1.2,11.24-2.4,16.73-.34,1.58-2.59,3.31-4.33,3.94-11.11,4-22.3,7.72-33.51,11.4-2.94,1-4.45,2.18-5,5.71-3.14,20.79-6.71,41.51-10.32,63.39-4.64-7.94-8.8-15-12.92-22.15-6.51-11.23-12.87-22.56-19.62-33.64a7.89,7.89,0,0,0-5.81-3.22c-12.29.24-24.56,1-36.85,1.41-1.38.05-3.42-.68-4.1-1.74-3.17-4.86-6-10-9.58-16.18l43.87-1.91-10.4-17.86,18.88-4.95,26.58,46.45c1.16-7.15,2.15-12.95,3-18.77,1.75-11.47,3.43-22.94,5.13-34.41Z" transform="translate(-431.36 -80.6)"/><path class="cls-6" d="M907.33,324.15c-1.7,11.47-3.38,22.94-5.13,34.41-.88,5.82-1.87,11.62-3,18.77l-26.58-46.45Z" transform="translate(-431.36 -80.6)"/><path class="cls-7" d="M880.66,631.91c17.78-14,37.44-24.26,60-27.24,11.42-1.51,23.12-.79,34.7-1.08,1.28,0,2.57,0,4.37,0-.9-5.92-2-11.57-2.56-17.27-1.72-18.31,2.66-35.26,11.94-51,.33-.56,1.28-.76,1.94-1.13,0,6.75-1.13,13.76.31,20.18,4.59,20.44,23.73,32.77,46.07,30.67,19.83-1.86,36.73-19.08,38-38.68.9-14.38-6.92-29.94-17.69-35.21-2,7.62-5.61,10.79-10.87,9.66-6.28-1.35-8.93-7.78-6.9-17.58h-14.33c5.68-2.36,11.17-5.56,17.07-7,49.34-11.68,97.11,21.08,104.8,71.43,1.55,10.18,3.61,20.29,5.55,30.41,1.81,9.4-.54,13.91-9.53,17.51-27.47,11-55,21.93-83,33.12,5.29,6.07,11.73,9.93,18.56,13.16,19.72,9.33,39.61,9.18,60,1.72,17.91-6.55,36-12.77,54.4-17.76,8.27-2.24,17.59-2.33,26.19-1.32,17.25,2.05,27.22,13.68,32.74,29.26,11.68,33,9,65.49-4.08,97.42-10.36,25.28-25.77,47.31-44.58,66.94-53.46,55.84-118.53,91.26-193.59,108.09-18.51,4.16-37.78,5.59-56.79,6.8-42.7,2.69-84.56-3.24-125.59-15-35.47-10.16-68.7-25.11-97.91-48-27.54-21.62-48.61-48-56.31-83A131.45,131.45,0,0,1,670.86,774c.77-19.84,12.89-31.34,31-37,16.37-5.14,33.31-5.83,50.31-6.06,11.47-.16,23,.14,34.37-1,20.89-2.19,44.21-18.94,51.94-36.82-7.61,0-14.84.08-22.07,0q-33.19-.42-66.4-1c-8-.12-11.22-2.62-12.48-10.5-2.42-15.08-6.19-30.17-6.52-45.31-.79-36.44,29.91-68.2,66.15-71.55,38-3.51,70.84,22.18,78.68,55.24a63,63,0,0,1,.9,6.89l-10.7-8.35c-1.19,8-4.29,11.85-9.1,11.3-2-.22-4.81-1.16-5.55-2.64-2-3.87-3-8.22-4.55-13-1.65.19-4.44.41-7.2.82-18.18,2.69-33.08,18.69-34,36.44-1,19.16,11,35.16,29.71,40.19,3.23.87,4.88.22,6-2.92A138.54,138.54,0,0,1,880.66,631.91ZM981.38,849.16c5-1.73,10.09-3.26,15-5.21,65.95-26.23,80.77-88.31,71.88-142.52-.28-1.74-2.77-4.13-4.45-4.33s-4.1,1.69-5.21,3.33c-1.92,2.85-2.93,6.29-4.56,9.36-18,34-45.58,57.69-80.33,73-39.17,17.27-79.43,21.67-120.77,7.64-1.84-.63-5.39.24-6.37,1.65s-.52,5,.68,6.55a147.26,147.26,0,0,0,36.39,33.76c-1.21,4.81-2.79,9.58-3.56,14.47-1.05,6.67-2.71,13.57-2,20.13,2.73,24.69,23.26,43.73,47.23,44.83,25.39,1.17,47-15.43,52.41-40.58C979.31,864,980.19,856.53,981.38,849.16Zm-36.67-120.5c20.23-.19,40.25-6,56.73-21.22,23.24-21.5,17.42-52.51-11.91-64.48-14.46-5.9-29.4-6.86-44.52-4-19.87,3.81-37.23,12.21-48.68,29.81-9.92,15.25-7.8,32.37,5.41,44.76C913.28,724.42,927.67,727.78,944.71,728.66Z" transform="translate(-431.36 -80.6)"/><path class="cls-8" d="M1186.58,208.21c2.64-4.37,5.38-8.68,7.9-13.12,10.25-18.1,20.39-36.3,34.17-52a96,96,0,0,1,16.28-14.57c8.41-6,17.34-5.72,26,.15,12.54,8.46,19.88,20.75,25.45,34.33,8.65,21.12,13,43.33,14.76,65.91,1.83,23.2,2.27,46.52,3.31,69.78-.38,14.46-.44,28.94-1.25,43.38-.9,15.87-2.39,31.71-3.83,47.55q-1.8,20-4.09,40c-5,44.06-27.6,75.17-68.25,93.12-4.25,1.87-5.77.83-7-3.35-9.66-31.35-25.16-59.74-45.35-85.4a281.69,281.69,0,0,0-80.05-69.55c-2-1.16-3.92-2.43-6.64-4.13,2.55-3.36,5.06-6.31,7.18-9.52,11-16.6,22.76-32.76,32.58-50,16.11-28.32,30.94-57.37,46.25-86.14A62.15,62.15,0,0,0,1186.58,208.21Z" transform="translate(-431.36 -80.6)"/><path class="cls-8" d="M482.45,452.07c-7.63-23.72-15.77-47.28-22.73-71.19a205.31,205.31,0,0,1-8.56-60.57c.22-14.25,2.32-28.18,10.24-40.57,6.89-10.79,15.3-14.23,27.69-11.22,14.2,3.43,26.28,11.17,37.74,19.7C540,298,552.62,308.65,565.49,318.9c1.41,1.12,2.93,2.12,4.39,3.18,7.7,7.07,15.31,14.24,23.12,21.19,9.79,8.72,19.72,17.27,29.61,25.87,25.18,21.91,50.41,43.75,79.75,60.13,1,.56,1.89,1.34,3.34,2.37-48.09,58.66-72.15,125.48-67.47,203-8.71-1.09-16.45-1.55-24-3.11-22.42-4.67-41.43-15.77-57.35-32.14-9.38-9.65-15.77-21.34-21.85-33.19-18.9-36.86-36.88-74.15-51.91-112.8A11.05,11.05,0,0,0,482.45,452.07Z" transform="translate(-431.36 -80.6)"/><path class="cls-9" d="M1025.61,503.22h14.33c-2,9.8.62,16.23,6.9,17.58,5.26,1.13,8.82-2,10.87-9.66,10.77,5.27,18.59,20.83,17.69,35.21-1.22,19.6-18.12,36.82-38,38.68-22.34,2.1-41.48-10.23-46.07-30.67-1.44-6.42-.28-13.43-.31-20.18l-.34-.09c.35-.73.69-1.47,1-2.2q8.84-21.82,31.54-28l2.37-.87Z" transform="translate(-431.36 -80.6)"/><path class="cls-10" d="M880.66,631.91a138.54,138.54,0,0,0-39.18,56.74c-1.16,3.14-2.81,3.79-6,2.92-18.73-5-30.67-21-29.71-40.19.88-17.75,15.78-33.75,34-36.44,2.76-.41,5.55-.63,7.2-.82,1.59,4.77,2.6,9.12,4.55,13,.74,1.48,3.57,2.42,5.55,2.64,4.81.55,7.91-3.29,9.1-11.3l10.7,8.35C878.09,628.5,879.37,630.2,880.66,631.91Z" transform="translate(-431.36 -80.6)"/><path class="cls-11" d="M1018.51,439.1c0-10.19,5.72-16.08,16.56-17.23a211.07,211.07,0,0,1,73,5.16c11.15,2.72,16.13,9.23,15.44,19.87-.6,9.15-10.63,16.69-19.53,14.28-19.39-5.26-39.12-6.94-59.11-6.22-3.13.12-6.24.88-9.37.92C1025.6,456,1018.53,448.93,1018.51,439.1Z" transform="translate(-431.36 -80.6)"/><path class="cls-11" d="M730.59,564.06c-8-.71-12.6-5-15.61-11.21-2.81-5.8-1.57-13.76,3.5-17.89a152.42,152.42,0,0,1,20.75-14.53c15.94-9,32.63-16.54,50.52-20.93,7.31-1.8,14.28-1.1,19.43,5.41,4.08,5.16,4.63,10.95,2.4,16.94a15.65,15.65,0,0,1-11.11,9.94A183,183,0,0,0,742.05,559C738.68,561.32,734.43,562.4,730.59,564.06Z" transform="translate(-431.36 -80.6)"/><path class="cls-7" d="M1025.68,503l-2.37.87Z" transform="translate(-431.36 -80.6)"/><path class="cls-7" d="M991.77,531.89c-.35.73-.69,1.47-1,2.2C991.08,533.36,991.42,532.62,991.77,531.89Z" transform="translate(-431.36 -80.6)"/><path class="cls-5" d="M964.52,329.81l.5-.37-.36.51Z" transform="translate(-431.36 -80.6)"/><path class="cls-12" d="M981.39,849.16c-1.2,7.37-2.08,14.8-3.65,22.09-5.44,25.15-27,41.75-52.41,40.58-24-1.1-44.5-20.14-47.23-44.83-.73-6.56.93-13.46,2-20.13.77-4.89,2.35-9.66,3.56-14.47q1.47-5.21,2.93-10.4,2-7,4.07-14c18.33,3.28,36.21.19,54-3.87l3.47-.79,1.46-.36,2.54-.63.27.08.22-.18c12.12-2.5,23.93-5.76,34.16-13.16l2.85-1.7c-.17,2-.27,4-.54,5.93q-3.09,22.38-6.25,44.76Q982.11,843.61,981.39,849.16Zm-80.72,5.3a20.68,20.68,0,0,1,0-2.49c.54-4.08-.86-7.26-5.1-7.64s-6.44,2.79-6.33,6.67c.16,6.24.19,12.66,1.67,18.66,3.25,13.19,11,23.36,23.31,29.51,3.12,1.55,6.58,2,8.92-1.47,1.85-2.73.39-7.21-3.07-8.87C905.57,881.87,901.4,869.16,900.67,854.46Z" transform="translate(-431.36 -80.6)"/><path class="cls-13" d="M944.71,728.66c-17-.88-31.43-4.24-43-15.08-13.21-12.39-15.33-29.51-5.41-44.76,11.45-17.6,28.81-26,48.68-29.81,15.12-2.91,30.06-2,44.52,4,29.33,12,35.15,43,11.91,64.48C985,722.69,964.94,728.47,944.71,728.66Zm15.38-86-.36,1.21c-12.35-.13-24.09,2.39-34.65,9-4.3,2.68-9.25,5.81-8.34,11.92s6.63,7,11.35,8.12c11.3,2.71,22.36.82,33.27-2.59,7.08-2.22,13.67-5.18,18.58-11,3.64-4.33,3.13-9.39-2-11.49C972.24,645.4,966.06,644.27,960.09,642.61Z" transform="translate(-431.36 -80.6)"/><path class="cls-14" d="M989.63,787.37l-2.85,1.7c-3.5,1.28-7,2.51-10.5,3.86-7.9,3.07-15.77,6.2-23.66,9.3l-.22.18-.27-.08-2.54.63-1.46.36-3.47.79c-17.81,4.06-35.69,7.15-54,3.87l-23.18-2.43-.69,1L886.57,822q-1.47,5.19-2.93,10.4a147.26,147.26,0,0,1-36.39-33.76c-1.2-1.57-1.65-5.14-.68-6.55s4.53-2.28,6.37-1.65c41.34,14,81.6,9.63,120.77-7.64,34.75-15.32,62.35-39,80.33-73,1.63-3.07,2.64-6.51,4.56-9.36,1.11-1.64,3.58-3.52,5.21-3.33s4.17,2.59,4.45,4.33c8.89,54.21-5.93,116.29-71.88,142.52-4.91,1.95-10,3.48-15,5.21q.74-5.55,1.46-11.1c2.19-.72,4.42-1.33,6.57-2.17,21.49-8.35,40.05-20.54,53-40.22,9.57-14.57,14.82-30.72,17-47.84,1.12-8.86,1.05-17.88,1.52-26.82a5.06,5.06,0,0,0-2.9,2.23c-13,22-30.81,39.3-51.88,53.41C1000.67,780.3,995.13,783.8,989.63,787.37Z" transform="translate(-431.36 -80.6)"/><path class="cls-15" d="M989.63,787.37c5.5-3.57,11-7.07,16.48-10.72,21.07-14.11,38.91-31.39,51.88-53.41a5.06,5.06,0,0,1,2.9-2.23c-.47,8.94-.4,18-1.52,26.82-2.16,17.12-7.41,33.27-17,47.84-12.93,19.68-31.49,31.87-53,40.22-2.15.84-4.38,1.45-6.57,2.17q3.13-22.38,6.25-44.76C989.36,791.34,989.46,789.35,989.63,787.37Z" transform="translate(-431.36 -80.6)"/><path class="cls-16" d="M900.67,854.46c.73,14.7,4.9,27.41,19.41,34.37,3.46,1.66,4.92,6.14,3.07,8.87-2.34,3.43-5.8,3-8.92,1.47-12.36-6.15-20.06-16.32-23.31-29.51-1.48-6-1.51-12.42-1.67-18.66-.11-3.88,2-7.06,6.33-6.67s5.64,3.56,5.1,7.64A20.68,20.68,0,0,0,900.67,854.46Z" transform="translate(-431.36 -80.6)"/><path class="cls-17" d="M886.57,822l-19.8-15.48.69-1L890.64,808Q888.6,815,886.57,822Z" transform="translate(-431.36 -80.6)"/><path class="cls-15" d="M952.62,802.23c7.89-3.1,15.76-6.23,23.66-9.3,3.48-1.35,7-2.58,10.5-3.86C976.55,796.47,964.74,799.73,952.62,802.23Z" transform="translate(-431.36 -80.6)"/><path class="cls-15" d="M944.66,804.11l3.47-.79Z" transform="translate(-431.36 -80.6)"/><path class="cls-15" d="M949.59,803l2.54-.63Z" transform="translate(-431.36 -80.6)"/><path class="cls-18" d="M960.09,642.61c6,1.66,12.15,2.79,17.85,5.12,5.13,2.1,5.64,7.16,2,11.49-4.91,5.85-11.5,8.81-18.58,11-10.91,3.41-22,5.3-33.27,2.59-4.72-1.13-10.45-2.06-11.35-8.12s4-9.24,8.34-11.92c10.56-6.59,22.3-9.11,34.65-9Z" transform="translate(-431.36 -80.6)"/></svg>