<svg id="Layer_4" data-name="Layer 4" xmlns="http://www.w3.org/2000/svg" viewBox="0 0 905.11 825.82"><defs><style>.cls-1{fill:#fdfcfc;}.cls-2{fill:#f2af5e;}.cls-3{fill:#f2ae5d;}.cls-4{fill:#fbeddc;}.cls-5{fill:#2d65f1;}.cls-6{fill:#f2ae5f;}.cls-7{fill:#fbecdb;}.cls-8{fill:#f2af5f;}.cls-9{fill:#f6ce9c;}.cls-10{fill:#010101;}.cls-11{fill:#3a3734;}.cls-12{fill:#ce8536;}.cls-13{fill:#040303;}.cls-14{fill:#3e1206;}.cls-15{fill:#ec6f67;}.cls-16{fill:#f3b6b3;}</style></defs><path class="cls-1" d="M1213,813.77a208.57,208.57,0,0,1-34.28,40.79c-.87.78-1.76,1.56-2.65,2.33q-11.79,10.23-24.21,19.3c-63.41,45-134.31,67.86-211.51,70.6q-4.08.15-8.18.12c-16.74-.07-33.59-2-50.24-4.08-43.47-5.43-84.45-19.51-123.51-39.39-33.76-17.18-64.36-38.81-89.41-67.81-23.62-27.36-39.84-58.3-41-95.48a138.31,138.31,0,0,1,3.55-34.28c2-8.68,5.74-15.37,11-20.35a37.88,37.88,0,0,1,3.85-3.19q1.43-1,2.94-1.89A52.25,52.25,0,0,1,669.84,674a127.14,127.14,0,0,1,27-.1c15.28,2.11,30.52,4.69,45.68,7.43a96.48,96.48,0,0,0,10.84,1.37c1,.11,2,.2,3,.28,21.44,1.78,48.06-10.85,59.21-27.63l-.15,0a110.32,110.32,0,0,0,9-11.84c15.5-23.41,34.89-40.57,58.14-50.61,16.62-4,33-8.53,49.35-8.55,19.5,0,39,6.27,59.31,10.66,19.15,9.5,35.74,24.34,49.29,44.27a134.88,134.88,0,0,0,13.8,17.28l-2.87.61c20.51,21.52,42.49,28.59,68.09,24.84,10-1.47,19.82-3.49,29.73-5.26,36-4.07,40.32-3.31,45.21-2.72,15.76,1.9,28.22,8.51,34.74,21.77a55.63,55.63,0,0,1,6.34,19.3C1241.07,751,1232.24,783.67,1213,813.77Z" transform="translate(-480.74 -130.16)"/><path class="cls-2" d="M1293.67,772.7c-.21-.67-.46-1.34-.74-2-3.07-7.31-6.85-14.31-10.29-21.4l.3-.27-1-1.94c.9-.8,2-1.72,3-2.68,6.61-6.08,9.13-14.53,6.86-22.61a46.85,46.85,0,0,0-4.27-8.12c-2.42-3.79-4.67-7.7-7.26-11.37-13.3-18.88-28.48-36-46.77-50.24a9.36,9.36,0,0,1-2.81-3.21c-3.21-2.51-4.15-5-3.71-9.12,1.87-17.82,3.24-35.69,4.88-54.66,2.75-.51,6.13-1,9.69-1.62q-1.08-2.61-2.2-5.21c-1.36-3.18-2.91-6.27-4.33-9.43-.2-.43-.38-.86-.56-1.3a2.92,2.92,0,0,1-1.75-1.83,11.07,11.07,0,0,1-.63-2.89c-3.71-32.59-13.7-63.35-28.81-92.3a281.63,281.63,0,0,0-65.83-83.13c-1.75-1.51-3.4-3.12-5.76-5.29,3.12-2.83,6.13-5.27,8.81-8,13.86-14.29,28.41-28,41.25-43.16,21.06-24.86,41-50.67,61.36-76.12a59.75,59.75,0,0,0,3.74-5.84,310.73,310.73,0,0,0-58.79-23.84q-12.45,12.58-24.87,25.18c-31.23,31.8-62.54,63.5-99.33,89.09-4.87,13.42-9.22,27.06-14.76,40.19-5.43,12.84-15.81,20.29-29.6,22.66-5.57,1-11.18,1.75-16.8,2.26-3.18.29-4.64,1.91-5.58,4.67q-18.3,53.75-36.66,107.48c-1.51,4.4-2.9,8.85-4.64,13.16a25.46,25.46,0,0,1-24.54,15.63,24.9,24.9,0,0,1-23-17Q892.63,482,877.11,435.61c-3-9-6.18-17.94-9-27-.89-2.85-2.41-3.82-5.18-4.36-9.12-1.77-18.45-3.05-27.16-6.07-9.87-3.43-16.34-11.24-19.94-21.09-4.73-13-9.26-26-13.87-39-1.11-.71-2.26-1.37-3.33-2.13-22.85-16.44-43.6-35.3-63.45-55.15-19-19-37.67-38.37-56.48-57.58-20.27,6.4-40.18,13.68-58.94,23.81,6.26,8.37,12.42,16.82,18.81,25.1,8,10.37,16.19,20.6,24.33,30.88,20.7,26.18,41.47,52.31,67.28,73.82.88.74,1.61,1.66,2.84,2.95-58.09,48.77-94.07,110-103.78,187-8.35-2.68-15.88-4.56-23-7.48-21.17-8.73-37.8-23.14-50.43-42.17-7.44-11.21-11.56-23.89-15.34-36.65C528.72,440.77,517.93,400.8,510.3,360a11.16,11.16,0,0,0-.46-1.42l-14.14,27a47.14,47.14,0,0,0,.68,4.93c6.08,24.37,11.81,48.85,18.43,73.07,5.08,18.6,9.26,37.58,18.38,54.83,16.85,31.86,42.25,53.47,77,63.49,5.79,1.67,11.88,2.31,16.3,3.14,1.56,18.06,2.88,35.11,4.62,52.08.08.86.17,1.72.26,2.58.45,4.23-.53,6.68-3.84,9.22-1,.75-2,1.51-2.92,2.29a227.79,227.79,0,0,0-55.72,65c-5.55,9.57-3.62,20.65,4.52,28.13,1,1,2.14,1.88,3,2.68-3.22,6.29-6.44,12.12-9.24,18.14-8,17.28.3,33,19,35.91,2.66.41,3.85,1.28,4.72,4,2.85,8.8,9.18,13.44,18.39,14.5a6.62,6.62,0,0,1,4.32,2.94c16.19,28.62,39.21,50.62,66.19,68.81C714.22,914.46,752.28,929,792,939.43c28.71,7.54,58,12,87.53,14.38q24.44,2,48.87,2.16h.29q25.06-.08,50.15-2.16c29.54-2.43,58.82-6.84,87.53-14.38,39.75-10.45,77.81-25,112.13-48.1,27-18.19,50-40.19,66.2-68.81a6.62,6.62,0,0,1,4.32-2.94c9.21-1.06,15.54-5.7,18.39-14.5.87-2.67,2.06-3.54,4.72-4C1288.13,798.62,1296.52,786.84,1293.67,772.7Zm-146.2,98.51c-1.19.85-2.38,1.7-3.58,2.53-62,43.34-131.22,65.33-206.64,68q-4,.13-8,.11c-16.35-.06-32.82-1.92-49.08-3.92-42.47-5.23-82.51-18.79-120.67-37.92-33-16.54-62.88-37.36-87.35-65.28-23.08-26.34-38.93-56.13-40-91.92a131.51,131.51,0,0,1,3.47-33c1.91-8.35,5.61-14.79,10.71-19.59a35.71,35.71,0,0,1,3.76-3.07c.93-.65,1.88-1.26,2.87-1.82a51.74,51.74,0,0,1,20-6.19,126,126,0,0,1,26.4-.09c8.08.74,16.13,2,24.17,3.43,10.34,1.79,20.65,4,31,5,1,.1,2,.19,2.92.27,20.94,1.71,46.95-10.45,57.84-26.6l-.14,0a105.84,105.84,0,0,0,8.78-11.4c15.14-22.54,34.09-39.05,56.8-48.72a126.66,126.66,0,0,1,40.75-9.63l.81-.06c2-.14,4.06-.23,6.07-.29,21.45-.59,41.08,3.47,58.53,12,18.71,9.15,34.92,23.43,48.16,42.62a130,130,0,0,0,13.48,16.63c18.39,19,40.35,27.27,68.6,22.26,4.32-.53,10.43-1.26,17.76-2.1l6.4-.72c35.17-3.92,39.4-3.19,44.17-2.62,15.4,1.83,27.57,8.19,33.94,21a53,53,0,0,1,6.2,18.58c5.39,34.55-3.24,66-22,95a201.15,201.15,0,0,1-33.5,39.27A243.71,243.71,0,0,1,1147.47,871.21Z" transform="translate(-480.74 -130.16)"/><path class="cls-3" d="M1129.34,641.37c-25.67,5.07-51.33,10.09-77.42,15.21.8.28,1.59.58,2.36.9s1.73.74,2.59,1.12c2.65-.5,5.29-1,7.92-1.53q32.55-6.55,65.08-13.21c6.28-1.28,9.25-3.48,10.08-8.37C1138.08,638.56,1134.74,640.31,1129.34,641.37Z" transform="translate(-480.74 -130.16)"/><path class="cls-3" d="M1359.42,367.39c-1.09-2-2.35-4-3.53-5.94-3.05,14.14-5.78,28.36-9.24,42.4-3.82,15.43-8.21,30.73-12.54,46q-5.47,19.37-11.41,38.59c-13,42.37-41,68.78-84.26,78.91a7.13,7.13,0,0,1-3.94.13c.18.44.36.87.56,1.3,1.42,3.16,3,6.25,4.33,9.43q1.13,2.6,2.2,5.21c-3.56.66-6.94,1.11-9.69,1.62-1.64,19-3,36.84-4.88,54.66-.44,4.17.5,6.61,3.71,9.12a8.76,8.76,0,0,1-.45-5.64,208.68,208.68,0,0,0,2.74-22.29c.78-11.06,1.1-22.15,1.62-33.36,4.17-.55,8.5-.8,12.69-1.7,35.87-7.78,62.58-28.22,81.4-59.41,12-19.82,16.78-42.3,23-64.15,7-24.47,12.62-49.32,18.84-74C1366.86,381.32,1363.17,374.34,1359.42,367.39Z" transform="translate(-480.74 -130.16)"/><path class="cls-3" d="M1285,744.4c-1,1-2.14,1.88-3,2.68l1,1.94c10.13-9.21,12.92-17.06,8.9-27.23C1294.11,729.87,1291.59,738.32,1285,744.4Z" transform="translate(-480.74 -130.16)"/><path class="cls-3" d="M1272.16,801.13c-2.66.41-3.85,1.28-4.72,4-2.85,8.8-9.18,13.44-18.39,14.5a6.62,6.62,0,0,0-4.32,2.94c-16.19,28.62-39.22,50.62-66.2,68.81-34.32,23.13-72.38,37.65-112.13,48.1-28.71,7.54-58,12-87.53,14.38q-25.07,2.07-50.15,2.16,28.18.13,56.35-2.44c62.71-5.8,123.13-19.83,178.52-51.1,33.72-19,62.48-43.5,81.94-77.72.72-1.26,2.23-2.75,3.51-2.9,11-1.23,17.32-7.59,19.46-16.73,6.12-2.43,11.72-3.79,16.37-6.69,8.82-5.5,12.1-15.69,8.8-25.69C1296.52,786.84,1288.13,798.62,1272.16,801.13Z" transform="translate(-480.74 -130.16)"/><path class="cls-3" d="M1050.75,495.68a175,175,0,0,1,21.33,2.8l.78.15,2.59.54a190.68,190.68,0,0,1,37.67,12.56c3.75,1.69,8.12,2,12.2,2.93,7.75-2.16,11.48-7.22,13.31-13.87a10.48,10.48,0,0,0,.25-1.14,6.51,6.51,0,0,0,.13-.77c0-.33.08-.65.1-1,.42-5.57-2.26-11.55-7.19-14.24l-1.73-.93-.18.06a14.69,14.69,0,0,1-11-.49c-18.09-8.75-37.17-14-57-17-3.1-.47-6.3-.29-9.38-.83a18.16,18.16,0,0,1-5.37-1.79l-.06,0a15.19,15.19,0,0,0-8.58,5.91l-.38.54a16,16,0,0,0-1,1.67c-.17.33-.34.66-.49,1s-.24.53-.34.8-.3.78-.43,1.16-.25.83-.36,1.25c-1.1,4.44-.19,8.81,2.33,13A15.66,15.66,0,0,0,1050.75,495.68Z" transform="translate(-480.74 -130.16)"/><path class="cls-3" d="M922.32,591.32l-.81.06c2.29-.09,4.59-.21,6.88-.35C926.38,591.09,924.36,591.18,922.32,591.32Zm0,0-.81.06c2.29-.09,4.59-.21,6.88-.35C926.38,591.09,924.36,591.18,922.32,591.32Z" transform="translate(-480.74 -130.16)"/><path class="cls-4" d="M1063.89,339.35c-4.87,13.42-9.22,27.06-14.77,40.19-5.42,12.84-15.8,20.29-29.59,22.66-5.57,1-11.18,1.75-16.81,2.26-3.17.29-4.64,1.91-5.57,4.67q-18.3,53.75-36.67,107.48c-1.5,4.4-2.89,8.85-4.63,13.16a25.45,25.45,0,0,1-24.55,15.62,24.89,24.89,0,0,1-23-17Q892.62,482,877.11,435.61c-3-9-6.19-17.94-9-27-.88-2.85-2.4-3.82-5.18-4.36-9.11-1.77-18.44-3.05-27.16-6.07-9.87-3.43-16.34-11.24-19.93-21.09-4.74-13-9.26-26-13.87-39l37-13.43c4,11.27,8.14,22.51,12,33.82,1.09,3.17,2.71,4.82,6.21,5.24q18,2.21,36,5.06a6.13,6.13,0,0,1,3.91,3.48c8.29,23,16.37,46,24.53,69.08,3.59,10.12,7.24,20.23,11.19,31.26,3.32-9.11,6.25-17.17,9.18-25.23,9-24.78,18-49.58,27.16-74.29a7.16,7.16,0,0,1,4.7-3.81c10-1.74,20-3.5,30-4.34,7.1-.59,11.3-2.92,13.25-10.3,2.61-9.91,6.42-19.5,9.71-29.23q16.21,6,32.43,12C1060.89,338,1062.38,338.7,1063.89,339.35Z" transform="translate(-480.74 -130.16)"/><path class="cls-5" d="M1370.56,388.3c-3.71-7-7.39-14-11.14-20.91-1.09-2-2.35-4-3.54-5.94,3.27-23.06,7.14-46.06,9.63-69.2,2.42-22.51,2.26-45.14-2.35-67.5-3-14.37-7.91-27.81-18.66-38.44-7.47-7.37-16.19-9.28-25.56-4.94a95.06,95.06,0,0,0-18.69,11.31c-16.45,12.9-29.78,28.91-43.19,44.8-3.29,3.9-6.78,7.64-10.18,11.44a311.09,311.09,0,0,0-58.8-23.84c11.22-11.35,22.25-22.89,33.71-34,16.87-16.33,34.16-32.28,54.46-44.32A133.36,133.36,0,0,1,1302,135c14.94-5,28.72-1.86,41.14,8.08,19.65,15.75,30,36.92,36,60.67,7.41,29.69,7.69,59.89,5.55,90.22C1382.44,325.8,1377.31,357.17,1370.56,388.3Z" transform="translate(-480.74 -130.16)"/><path class="cls-5" d="M678.69,223.2c-20.26,6.4-40.17,13.67-58.93,23.81-1.25-1.31-2.55-2.57-3.73-3.94-10.76-12.45-21.18-25.2-32.33-37.28-9.69-10.5-20.14-20.34-33.46-26.34-11.63-5.24-20.52-3.41-29.29,5.92-10.07,10.71-14.71,24-17.54,38a205.18,205.18,0,0,0-2.78,61.11c2.44,24.78,6.08,49.44,9.21,74.15l-14.15,27c-3.64-20.93-7.86-41.78-10.8-62.81-4.06-29-5.48-58.27-2.72-87.54,2.59-27.44,8.54-53.92,25-76.9A78.79,78.79,0,0,1,531,136c15.49-9.17,31-6.33,46.27.74C597.44,146,614.36,160,630.38,175s31.07,30.5,46.54,45.81A19.74,19.74,0,0,1,678.69,223.2Z" transform="translate(-480.74 -130.16)"/><path class="cls-6" d="M1026.92,325.37c-3.29,9.73-7.1,19.32-9.71,29.23-2,7.38-6.15,9.71-13.25,10.3-10.07.84-20.08,2.6-30,4.34a7.16,7.16,0,0,0-4.7,3.81c-9.2,24.71-18.15,49.51-27.16,74.29-2.93,8.06-5.86,16.12-9.18,25.23-4-11-7.6-21.14-11.19-31.26-8.16-23-16.24-46.1-24.53-69.08a6.13,6.13,0,0,0-3.91-3.48q-18-2.85-36-5.06c-3.5-.42-5.12-2.07-6.21-5.24-3.89-11.31-8-22.55-12-33.82,15.44-3.53,30.86-7.14,46.33-10.53,3.53-.78,7.22-.81,10.83-1.19,2.24,6.3,4.48,12.6,6.93,19.47l-43.47-6.21c2.41,6.77,4.21,12.3,6.42,17.67.48,1.16,2.35,2.25,3.71,2.46,12.15,1.87,24.36,3.38,36.48,5.42a7.86,7.86,0,0,1,5.12,4.23c4.59,12.14,8.75,24.44,13.07,36.68,2.74,7.76,5.52,15.5,8.61,24.16,7.59-20.83,14.92-40.54,21.84-60.4,1.18-3.36,2.89-4.28,6-4.69,11.7-1.55,23.39-3.16,35-5,1.83-.29,4.36-1.58,5-3.07,2.19-5.17,3.68-10.64,5.44-16l.45-.43-.56.27c-2.45.1-4.92,0-7.34.33-11.55,1.51-23.1,3.14-35.48,4.85,2.67-7,5.07-13.25,7.47-19.51Z" transform="translate(-480.74 -130.16)"/><path class="cls-7" d="M970.84,313.12c-2.4,6.26-4.8,12.52-7.47,19.51,12.38-1.71,23.93-3.34,35.48-4.85,2.42-.32,4.89-.23,7.34-.33l.11.16c-1.76,5.36-3.25,10.83-5.44,16-.63,1.49-3.16,2.78-5,3.07-11.65,1.86-23.34,3.47-35,5-3.06.41-4.77,1.33-6,4.69C948,376.25,940.63,396,933,416.79c-3.09-8.66-5.87-16.4-8.61-24.16-4.32-12.24-8.48-24.54-13.07-36.68a7.86,7.86,0,0,0-5.12-4.23c-12.12-2-24.33-3.55-36.48-5.42-1.36-.21-3.23-1.3-3.71-2.46-2.21-5.37-4-10.9-6.42-17.67l43.47,6.21c-2.45-6.87-4.69-13.17-6.93-19.47l19.47-1.38c5.71,16.44,11.42,32.88,17.55,50.56,2.46-6.81,4.5-12.33,6.45-17.89,3.82-10.95,7.59-21.92,11.39-32.88Z" transform="translate(-480.74 -130.16)"/><path class="cls-8" d="M951,311.32c-3.8,11-7.57,21.93-11.39,32.88-1.95,5.56-4,11.08-6.45,17.89-6.13-17.68-11.84-34.12-17.55-50.56Z" transform="translate(-480.74 -130.16)"/><path class="cls-9" d="M1246.88,248.92c3.4-3.8,6.89-7.54,10.18-11.44,13.41-15.89,26.74-31.9,43.19-44.8a95.06,95.06,0,0,1,18.69-11.31c9.37-4.34,18.09-2.43,25.56,4.94,10.75,10.63,15.7,24.07,18.66,38.44,4.61,22.36,4.77,45,2.35,67.5-2.49,23.14-6.36,46.14-9.63,69.2-3.05,14.14-5.77,28.36-9.24,42.4-3.81,15.43-8.2,30.73-12.53,46q-5.49,19.35-11.42,38.59c-13,42.37-41,68.78-84.25,78.91-4.53,1.06-5.83-.24-6.32-4.59-3.71-32.59-13.7-63.36-28.81-92.3a281.66,281.66,0,0,0-65.84-83.13c-1.74-1.51-3.4-3.12-5.76-5.29,3.13-2.83,6.14-5.27,8.81-8,13.86-14.29,28.42-28,41.26-43.16,21.06-24.86,41-50.67,61.36-76.12A61.68,61.68,0,0,0,1246.88,248.92Z" transform="translate(-480.74 -130.16)"/><path class="cls-9" d="M509.84,358.62c-3.13-24.71-6.77-49.37-9.21-74.15a205.18,205.18,0,0,1,2.78-61.11c2.83-14,7.47-27.28,17.54-38,8.77-9.33,17.66-11.16,29.29-5.92,13.32,6,23.77,15.84,33.46,26.34,11.15,12.08,21.57,24.83,32.33,37.28,1.18,1.37,2.48,2.63,3.73,3.94,6.26,8.37,12.42,16.82,18.81,25.1,8,10.37,16.19,20.6,24.32,30.88,20.71,26.18,41.47,52.3,67.29,73.82.88.74,1.61,1.66,2.84,2.95-58.09,48.77-94.08,110-103.78,187-8.36-2.68-15.88-4.56-23-7.48-21.18-8.73-37.81-23.14-50.44-42.17-7.44-11.22-11.55-23.89-15.34-36.65-11.77-39.72-22.56-79.69-30.2-120.45A12.29,12.29,0,0,0,509.84,358.62Z" transform="translate(-480.74 -130.16)"/><path class="cls-10" d="M913.1,715.78c-16.58-4-30.11-10-39.45-22.74-10.69-14.62-9.62-31.84,3-45,14.49-15.18,33.11-20.23,53.34-20.31,15.4-.06,29.91,3.63,43,12.11,26.61,17.17,26.61,48.72-.2,65.57C953.76,717.35,933,719.34,913.1,715.78Zm31-81.72-.58,1.12c-12.12-2.41-24.12-2.1-35.71,2.42-4.73,1.85-10.16,4-10.4,10.18s5.23,8.1,9.65,10.08c10.61,4.75,21.84,4.93,33.19,3.59,7.37-.87,14.39-2.56,20.29-7.41,4.38-3.58,4.81-8.64.15-11.66C955.53,639,949.66,636.78,944.1,634.06Z" transform="translate(-480.74 -130.16)"/><path class="cls-11" d="M944.1,634.06c5.56,2.72,11.43,5,16.59,8.32,4.66,3,4.23,8.08-.15,11.66-5.9,4.85-12.92,6.54-20.29,7.41-11.35,1.34-22.58,1.16-33.19-3.59-4.42-2-9.88-4-9.65-10.08s5.67-8.33,10.4-10.18c11.59-4.52,23.59-4.83,35.71-2.42Z" transform="translate(-480.74 -130.16)"/><path class="cls-12" d="M733.11,514.66c-7.76-2.16-11.49-7.22-13.32-13.87-1.71-6.21,1-13.81,6.69-17a152.4,152.4,0,0,1,23-10.51c17.31-6,35.09-10.34,53.47-11.41,7.53-.44,14.25,1.51,18.13,8.84,3.08,5.82,2.57,11.61-.71,17.1a15.65,15.65,0,0,1-12.74,7.76,183.06,183.06,0,0,0-62.38,16.12C741.56,513.42,737.19,513.72,733.11,514.66Z" transform="translate(-480.74 -130.16)"/><path class="cls-3" d="M926.92,593v.12l2.28-.09C928.44,593.05,927.68,593,926.92,593Zm128.5-131.13a24.87,24.87,0,0,0-8.17.72,15.19,15.19,0,0,0-8.58,5.91,15.37,15.37,0,0,1,8.64-5.88,25.11,25.11,0,0,1,8-.7,163.77,163.77,0,0,1,17.91,2A162.2,162.2,0,0,0,1055.42,461.91Zm83.24,38.68c-1.81,6.66-5.53,11.73-13.28,13.91-4.08-.93-8.45-1.21-12.2-2.89a188.88,188.88,0,0,0-37.73-12.44,190.68,190.68,0,0,1,37.67,12.56c3.75,1.69,8.12,2,12.2,2.93,7.75-2.16,11.48-7.22,13.31-13.87a10.48,10.48,0,0,0,.25-1.14C1138.82,500,1138.75,500.28,1138.66,500.59Z" transform="translate(-480.74 -130.16)"/><path class="cls-12" d="M1139.11,497.9c0,.33-.06.65-.1,1a6.51,6.51,0,0,1-.13.77,10.48,10.48,0,0,1-.25,1.14c-1.83,6.65-5.56,11.71-13.31,13.87-4.08-.94-8.45-1.24-12.2-2.93a190.68,190.68,0,0,0-37.67-12.56l-2.59-.54-.78-.15a175,175,0,0,0-21.33-2.87,15.65,15.65,0,0,1-12.74-7.76,17,17,0,0,1-2.34-12.9c.11-.42.23-.83.36-1.25s.27-.77.43-1.16.22-.54.34-.8.32-.66.49-1a16,16,0,0,1,1-1.67l.38-.54a15.19,15.19,0,0,1,8.58-5.91,24.87,24.87,0,0,1,8.17-.72,162.2,162.2,0,0,1,17.82,2l2.53.44c1.15.2,2.3.43,3.44.66a231.82,231.82,0,0,1,29.69,8.26,146.09,146.09,0,0,1,21.11,9.47l1.94,1C1136.81,486.5,1139.46,492.38,1139.11,497.9Z" transform="translate(-480.74 -130.16)"/><path class="cls-13" d="M871.63,590.7a8.65,8.65,0,0,1-9.94,4,169.11,169.11,0,0,0-27.57-3.94,166.2,166.2,0,0,0-52.56,5.05,157.69,157.69,0,0,0-37.44,15.55c-7.76,6.21-16.31,6.07-18.65,3s-.28-11.28,7.63-17.19a141.18,141.18,0,0,1,135.31-17.87A8.7,8.7,0,0,1,871.63,590.7Z" transform="translate(-480.74 -130.16)"/><path class="cls-13" d="M992.27,586.42a8.62,8.62,0,0,0,9.93,4.05,171.32,171.32,0,0,1,27.58-3.94,166.28,166.28,0,0,1,52.55,5.06,157.1,157.1,0,0,1,37.44,15.55c7.77,6.2,16.31,6.06,18.65,3s.28-11.28-7.63-17.19a141.17,141.17,0,0,0-135.3-17.87A8.67,8.67,0,0,0,992.27,586.42Z" transform="translate(-480.74 -130.16)"/><path class="cls-2" d="M627.57,649c-1,.75-2,1.51-2.92,2.29l-.15-.3c3.34-4.3,5.73-8.73,6.65-13.79.08.86.17,1.72.26,2.58C631.86,644,630.88,646.41,627.57,649Z" transform="translate(-480.74 -130.16)"/><path class="cls-2" d="M652.93,685.3c-.93.64-1.83,1.31-2.7,2l-.17-.21C651,686.47,651.94,685.86,652.93,685.3Z" transform="translate(-480.74 -130.16)"/><path class="cls-14" d="M1036.38,747c-3.65,8.18-6.82,16.62-11,24.49-8.16,15.2-18.85,28.4-33,38.56-26.61,19.1-55.84,18.75-63.89,18.54-53.69-1.41-86.45-43.78-91-49.86l-12.92-21.56,1-.65q10.39,5.28,20.77,10.58c15.94,9.64,33.73,13.17,51.81,15.77l3.53.51,1.49.18,2.6.33.22.17.27-.08c8.48-.07,17-.17,25.42-.2,3.73,0,7.46.11,11.19.17l3.27-.57c6.41-1.36,12.84-2.64,19.23-4.09,24.73-5.62,47.58-15.35,67.58-31.24A5.06,5.06,0,0,1,1036.38,747Z" transform="translate(-480.74 -130.16)"/><path class="cls-13" d="M1050.29,731.39c-7.67,37-27.14,73.43-61.62,92.85-1.21.68-2.42,1.34-3.63,2l-.42.14c-22.9,7.87-40.61,12-47.59,12.23-2.45.08-5,.06-5,.06a114.32,114.32,0,0,1-25.38-2.9,118,118,0,0,1-13.1-3.78c-4-1.39-7.76-3-11.38-4.64.08-2.42.22-4.84.28-7.22q0-1.67.21-3.33c3,1.51,6.07,2.93,9.31,4.23a106.09,106.09,0,0,0,11.88,4,103.2,103.2,0,0,0,24.56,3.63s2.89.09,5.77,0c5.83-.13,24.81-4.37,49.62-13.14a95.23,95.23,0,0,0,8.5-5.43c14.16-10.16,24.85-23.36,33-38.56,3.74-7,6.66-14.4,9.82-21.7a1.48,1.48,0,0,0-2.29-1.74,157.49,157.49,0,0,1-49.37,26.21c-1.16.38-2.33.76-3.51,1.11-7.5,2.22-13.27,3.6-14.7,3.92a178.2,178.2,0,0,1-19.06,3.15l-4,.64c-3.47.29-7,.52-10.66.7-8.91.43-17.4.46-25.42.2l-.27.08-.22-.17-2.6-.33-1.49-.18-3.53-.51c-3.44-.49-6.87-1-10.28-1.62l-3.09-.57c-13.41-2.53-26.42-6.32-38.4-13.56l-.08,0-16.36-8.34-2.68,2.88q5.1,8.52,10.21,17l.08.13a137.15,137.15,0,0,0,42.76,36.65,1.49,1.49,0,0,1,.78,1.45c-.19,2.05-.39,4.1-.48,6.14-.06,1.11-.08,2.22-.07,3.33v.1a151.28,151.28,0,0,1-49.46-39l-.06-.08a147.52,147.52,0,0,1-21.83-44.52c-.56-1.9.3-5.4,1.72-6.36s5-.5,6.54.74c33.55,27.93,72.71,38.27,115.47,36.2,37.93-1.84,72.19-14,101.18-39.33,2.61-2.28,4.8-5.13,7.61-7.1,1.62-1.14,4.6-2,6.06-1.23S1050.65,729.67,1050.29,731.39Z" transform="translate(-480.74 -130.16)"/><path class="cls-13" d="M882.69,816.76q-.16,1.66-.21,3.33c-.06,2.38-.2,4.8-.28,7.22l-1.74-.83v-.1c0-1.11,0-2.22.07-3.33.11-2.37.35-4.75.58-7.12C881.63,816.22,882.16,816.49,882.69,816.76Z" transform="translate(-480.74 -130.16)"/><path class="cls-15" d="M980.81,818c0-2.19-.1-4.38-.12-6.56-.06-5.77-.39-10-.45-11.19-.22-4.29-.4-11.59-.25-24.88a142.37,142.37,0,0,1-14.7,3.92c-5.23,1.1-10.67,1.92-17.92,3l-4,.6c-3.79.36-7.7.66-11.72.87-9,.48-17.47.5-25.42.2l-.27.08-.22-.17-2.6-.33-1.49-.18-3.53-.51c-3.44-.49-6.87-1-10.28-1.62l-3.09-.57c-.86,9-1.55,15.5-2.06,20.08-.4,3.58-.84,7.16-1.12,10.75-.11,1.46-.26,2.93-.41,4.4-.23,2.37-.47,4.75-.58,7.12-.06,1.11-.08,2.22-.07,3.33v.1c0,2.36,0,4.74,0,7.13a48.72,48.72,0,0,0,1.44,13c6.88,23.87,30.35,39.15,54.17,36.17,25.21-3.17,43.66-23.18,44.75-48.89.06-1.47.1-2.94.11-4.4C981,825.65,980.9,821.83,980.81,818Zm-49.28,51.16a7.36,7.36,0,0,1-.65,1.15l-.3.39a4.73,4.73,0,0,1-.37.4,5.3,5.3,0,0,1-.63.54,4,4,0,0,1-.69.41,8.11,8.11,0,0,1-5.89.06,46.28,46.28,0,0,1-7-2.72h0a44,44,0,0,1-4.22-2.35h0c-.67-.43-1.33-.88-2-1.33-1.15-.83-2.25-1.71-3.3-2.63l-.59-.54c-.51-.47-1-.95-1.49-1.44-.22-.23-.44-.45-.65-.68-.65-.68-1.26-1.38-1.85-2.1-.21-.25-.42-.51-.62-.77-.52-.66-1-1.33-1.5-2-.21-.3-.42-.6-.62-.91a47,47,0,0,1-3.06-5.33c-.19-.37-.38-.75-.55-1.13s-.36-.77-.53-1.16-.3-.71-.44-1.07a52.1,52.1,0,0,1-1.84-5.54c-.21-.75-.41-1.51-.59-2.28l-.09-.36c-.34-1.41-.65-2.83-.93-4.25s-.62-3.08-.92-4.61c0-.16-.06-.32-.08-.48a3.93,3.93,0,0,1-.06-.48,8.13,8.13,0,0,1,0-.84,1.62,1.62,0,0,1,0-.22,6,6,0,0,1,.19-1.43,2.73,2.73,0,0,1,.14-.51,2.22,2.22,0,0,1,.18-.49,2.77,2.77,0,0,1,.22-.46,4.36,4.36,0,0,1,.57-.85,3.49,3.49,0,0,1,.32-.35,5.12,5.12,0,0,1,.85-.67,3.67,3.67,0,0,1,.48-.26,4.06,4.06,0,0,1,.52-.22,7,7,0,0,1,1.83-.39,6.62,6.62,0,0,1,1.26,0,2.2,2.2,0,0,1,.37,0,1.45,1.45,0,0,1,.29,0l.2,0a1.55,1.55,0,0,1,.31.07,2.46,2.46,0,0,1,.38.14.13.13,0,0,1,.08,0,2.32,2.32,0,0,1,.39.18.2.2,0,0,1,.09,0,1.86,1.86,0,0,1,.33.19,4,4,0,0,1,.78.64,3.82,3.82,0,0,1,.37.42,5.71,5.71,0,0,1,.79,1.39c.06.13.11.26.16.4l0,.09c0,.12.08.24.11.37s.09.32.13.49.13.65.17,1c0,0,0,0,0,0s0,.32.05.49l0,.54a8.66,8.66,0,0,0,.17,1.23c.08.41.18.82.25,1.23.2.9.41,1.79.63,2.66l0,.11c.12.46.24.91.37,1.36.41,1.48.86,2.91,1.37,4.31.11.31.22.63.34.93s.33.84.5,1.25.25.6.38.89c.27.63.55,1.26.86,1.87.12.24.24.49.37.73s.26.51.4.76c.29.54.6,1.07.92,1.6s.65,1,1,1.54c0,0,0,0,0,0,.35.5.71,1,1.07,1.47a30.64,30.64,0,0,0,3,3.41c.44.44.89.85,1.36,1.24l.72.6c.73.58,1.49,1.13,2.29,1.66.4.26.81.52,1.23.76s.85.49,1.29.72l.58.3a2.6,2.6,0,0,0,.34.16c.29.15.59.29.89.42s.85.38,1.29.55a2.87,2.87,0,0,0,.37.15c.43.17.86.33,1.3.48h0l1,.32L927,861a4.2,4.2,0,0,1,.5.17l.3.12a2.64,2.64,0,0,1,.38.18l.37.2a5.59,5.59,0,0,1,.9.63,6.57,6.57,0,0,1,.88.87l.24.3a6.63,6.63,0,0,1,1.09,2.11c0,.11.07.22.1.33s.05.24.07.35a.64.64,0,0,1,0,.2A4.82,4.82,0,0,1,931.53,869.18Z" transform="translate(-480.74 -130.16)"/><path class="cls-16" d="M902,830.38c3.22,14.37,9.48,26.18,25,30.58,3.69,1,5.89,5.22,4.52,8.22-1.72,3.78-5.19,4-8.53,3-13.23-4-22.54-12.68-28-25.12-2.48-5.67-3.6-12-4.82-18.11-.76-3.81.81-7.3,5.11-7.65s6.16,2.56,6.33,6.66A18.81,18.81,0,0,0,902,830.38Z" transform="translate(-480.74 -130.16)"/><path class="cls-15" d="M1065.71,853.94" transform="translate(-480.74 -130.16)"/></svg>