<svg id="Layer_2" data-name="Layer 2" xmlns="http://www.w3.org/2000/svg" viewBox="0 0 905.11 825.82"><defs><style>.cls-1{fill:#fdfcfc;}.cls-2{fill:#f2ae5d;}.cls-3{fill:#fbeddc;}.cls-4{fill:#2d65f1;}.cls-5{fill:#f2ae5f;}.cls-6{fill:#fbecdb;}.cls-7{fill:#f2af5f;}.cls-8{fill:#f6ce9c;}.cls-9{fill:#010101;}.cls-10{fill:#3a3734;}.cls-11{fill:#ce8536;}.cls-12{fill:#040404;}.cls-13{fill:#040303;}</style></defs><path class="cls-1" d="M1159.94,678.29c-15.86,1.74-31.48,5.48-47.29,7.77-25,3.61-46.49-3.19-66.52-23.91,22.32-4.7,41.82-8.76,61.3-12.9,38.27-8.15,38.51-8.49,35.79-47.44-2.81-40.15-28.68-70.43-63.82-74.68-38.63-4.67-72.15,16.17-82.77,52-2.44,8.23-3,17-4.27,24.17-21.66-4.18-42.34-11.32-63-11.29s-41.26,7.22-62.43,11.38c-.27-3-.53-7.06-1.06-11.12-7.26-55.65-70-84.61-116.14-53.23C723.05,557.21,715,583.88,716.18,615c1,28.07.25,27.93,27.63,33.16,22.33,4.27,44.57,9,68.42,13.86-22.79,22.16-41.57,28.1-67.89,23.41-16.31-2.91-32.68-5.62-49.12-7.75-40.76-5.29-63.69,14.86-64.43,55.72C630,775.79,647,811.22,676.23,840.06c129.48,128,348.56,136.9,491.69,14.37,33.46-28.65,57.41-63.93,60.25-109.25C1231.15,697.56,1214.13,672.31,1159.94,678.29ZM980,699.13q-1.8,1.26-3.66,2.43c-28.94,18-65.34,18.44-94,0a21.39,21.39,0,0,1-5.67-5.08c-6.22-9.76-8.07-16.8-7.49-24.92,1.24-17.44,12.82-32.32,29-38.89,30.06-12.18,69.18-6.75,87.06,16.43C998.2,666,997.68,686.68,980,699.13Z" transform="translate(-481.12 -129.43)"/><path class="cls-2" d="M929.86,592.33h-.24c.92,0,1.85.06,2.78.11,11.24.62,22.37,3.36,33.54,5.22A110.65,110.65,0,0,0,929.86,592.33Zm202.43-109.4-1.73-.93-.18.06a14.69,14.69,0,0,1-11-.49c-18.09-8.75-37.17-14-57-17-3.1-.47-6.3-.29-9.38-.83a18.16,18.16,0,0,1-5.37-1.79l-.06,0a15.19,15.19,0,0,0-8.58,5.91l-.38.54a16,16,0,0,0-1,1.67c-.17.33-.34.66-.49,1s-.24.53-.34.8-.3.78-.43,1.16-.25.83-.36,1.25c-1.1,4.44-.19,8.81,2.33,13a15.66,15.66,0,0,0,12.75,7.72,175,175,0,0,1,21.33,2.8l.78.15,2.59.54A190.68,190.68,0,0,1,1113.49,511c3.75,1.69,8.12,2,12.2,2.93,7.75-2.16,11.48-7.22,13.31-13.87a10.48,10.48,0,0,0,.25-1.14,6.51,6.51,0,0,0,.13-.77c0-.33.08-.65.1-1C1139.9,491.6,1137.22,485.62,1132.29,482.93Zm-2.58,157.71c-29,5.73-58.06,11.41-87.7,17.23.51.87,1,1.72,1.61,2.53,7.43-1.4,14.5-2.64,21.54-4.06q32.55-6.55,65.08-13.21c6.28-1.28,9.25-3.48,10.08-8.37C1138.45,637.83,1135.11,639.58,1129.71,640.64Zm56.15,37.74c-17-2-33.82.43-50.57,3.34-11.3,2-22.58,4.38-34,5.31-13.47,1.1-29-3.54-41.33-11.29,17.09,11.57,36,14.69,56.51,11.26,18.82-3.13,37.75-5.9,56.74-7.41,8.55-.68,17.72.95,26,3.53a35.11,35.11,0,0,1,20.59,16.22C1213.43,686.57,1201.26,680.21,1185.86,678.38Zm106.35,42.68c2.27,8.08-.25,16.53-6.86,22.61-1,1-2.14,1.88-3,2.68l1,1.94C1293.44,739.08,1296.23,731.23,1292.21,721.06ZM1294,772c2.85,14.14-5.54,25.92-21.51,28.43-2.66.41-3.85,1.28-4.72,4-2.85,8.8-9.18,13.44-18.39,14.5a6.62,6.62,0,0,0-4.32,2.94c-16.19,28.62-39.22,50.62-66.2,68.81-34.32,23.13-72.38,37.65-112.13,48.1-28.71,7.54-58,11.95-87.53,14.38q-25.07,2.07-50.15,2.16,28.18.13,56.35-2.44C1048.15,947,1108.57,933,1164,901.7c33.72-19,62.48-43.5,81.94-77.72.72-1.26,2.23-2.75,3.51-2.9,11-1.23,17.32-7.59,19.46-16.73,6.12-2.43,11.72-3.79,16.37-6.69C1294.06,792.16,1297.34,782,1294,772Zm65.75-405.31c-1.09-2-2.35-4-3.53-5.94-3,14.14-5.78,28.36-9.24,42.4-3.82,15.43-8.21,30.73-12.54,46q-5.48,19.37-11.41,38.59c-13,42.37-41,68.78-84.26,78.91a7.13,7.13,0,0,1-3.94.13c.18.44.36.87.56,1.3,1.42,3.16,3,6.25,4.33,9.43q1.13,2.6,2.2,5.21c-3.56.66-6.94,1.11-9.69,1.62-1.64,19-3,36.84-4.88,54.66-.44,4.17.5,6.61,3.71,9.12a8.76,8.76,0,0,1-.45-5.64,208.68,208.68,0,0,0,2.74-22.29c.78-11.06,1.1-22.15,1.62-33.36,4.17-.55,8.5-.8,12.69-1.7,35.87-7.78,62.58-28.22,81.4-59.41,12-19.82,16.78-42.3,23-64.15,7-24.47,12.62-49.32,18.84-74C1367.23,380.59,1363.54,373.61,1359.79,366.66Z" transform="translate(-481.12 -129.43)"/><path class="cls-2" d="M1294,772c-.21-.67-.46-1.34-.74-2-3.07-7.31-6.85-14.31-10.29-21.4l.3-.27-1-1.94c.9-.8,2-1.72,3-2.68,6.61-6.08,9.13-14.53,6.86-22.61a46.85,46.85,0,0,0-4.27-8.12c-2.42-3.79-4.67-7.7-7.26-11.37-13.3-18.88-28.48-36-46.77-50.24a9.36,9.36,0,0,1-2.81-3.21c-3.21-2.51-4.15-5-3.71-9.12,1.87-17.82,3.24-35.69,4.88-54.66,2.75-.51,6.13-1,9.69-1.62q-1.08-2.61-2.2-5.21c-1.36-3.18-2.91-6.27-4.33-9.43-.2-.43-.38-.86-.56-1.3a2.92,2.92,0,0,1-1.75-1.83,11.07,11.07,0,0,1-.63-2.89c-3.71-32.59-13.7-63.35-28.81-92.3a281.63,281.63,0,0,0-65.83-83.13c-1.75-1.51-3.4-3.12-5.76-5.29,3.12-2.83,6.13-5.27,8.81-8,13.86-14.29,28.41-28,41.25-43.16,21.06-24.86,41-50.67,61.36-76.12a59.75,59.75,0,0,0,3.74-5.84,310.73,310.73,0,0,0-58.79-23.84q-12.45,12.59-24.87,25.18c-31.23,31.8-62.54,63.5-99.33,89.09-4.87,13.42-9.22,27.06-14.76,40.19-5.43,12.84-15.81,20.29-29.6,22.66-5.57,1-11.18,1.75-16.8,2.26-3.18.29-4.64,1.91-5.58,4.67q-18.3,53.75-36.66,107.48c-1.51,4.4-2.9,8.85-4.64,13.16a25.46,25.46,0,0,1-24.54,15.63,24.9,24.9,0,0,1-23-17Q893,481.3,877.48,434.88c-3-9-6.18-17.94-9-27-.89-2.85-2.41-3.82-5.18-4.36-9.12-1.77-18.45-3-27.16-6.07-9.87-3.43-16.34-11.24-19.94-21.09-4.73-13-9.26-26-13.87-39-1.11-.71-2.26-1.37-3.33-2.13-22.85-16.44-43.6-35.3-63.45-55.15-19-19-37.67-38.37-56.48-57.58-20.27,6.4-40.18,13.68-58.94,23.81,6.26,8.37,12.42,16.82,18.81,25.1,8,10.37,16.19,20.6,24.33,30.88,20.7,26.18,41.47,52.31,67.28,73.82.88.74,1.61,1.66,2.84,2.95-58.09,48.77-94.07,110-103.78,187-8.35-2.68-15.88-4.56-23-7.48-21.17-8.73-37.8-23.14-50.43-42.17-7.44-11.21-11.56-23.89-15.34-36.65-11.78-39.72-22.57-79.69-30.2-120.45a11.16,11.16,0,0,0-.46-1.42l-14.14,27a47.14,47.14,0,0,0,.68,4.93c6.08,24.37,11.81,48.85,18.43,73.07,5.08,18.6,9.26,37.58,18.38,54.83,16.85,31.86,42.25,53.47,77,63.49,5.79,1.67,11.88,2.31,16.3,3.14,1.64,19,3,36.84,4.88,54.66.45,4.23-.53,6.68-3.84,9.22-24.08,18.45-43.44,41.11-58.64,67.32-5.55,9.57-3.62,20.65,4.52,28.13,1,1,2.14,1.88,3,2.68-3.22,6.29-6.44,12.12-9.24,18.14-8,17.28.3,33,19,35.91,2.66.41,3.85,1.28,4.72,4,2.85,8.8,9.18,13.44,18.39,14.5a6.62,6.62,0,0,1,4.32,2.94c16.19,28.62,39.21,50.62,66.19,68.81,34.33,23.13,72.39,37.65,112.14,48.1,28.71,7.54,58,11.95,87.53,14.38q24.44,2,48.87,2.16h.29q25.06-.07,50.15-2.16c29.54-2.43,58.82-6.84,87.53-14.38,39.75-10.45,77.81-25,112.13-48.1,27-18.19,50-40.19,66.2-68.81a6.62,6.62,0,0,1,4.32-2.94c9.21-1.06,15.54-5.7,18.39-14.5.87-2.67,2.06-3.54,4.72-4C1288.5,797.89,1296.89,786.11,1294,772ZM1036,474.22c.11-.42.23-.83.36-1.25s.27-.77.43-1.16.22-.54.34-.8.32-.66.49-1a16,16,0,0,1,1-1.67,6.58,6.58,0,0,1,.38-.54,15.19,15.19,0,0,1,8.58-5.91,24.87,24.87,0,0,1,8.17-.72,162.2,162.2,0,0,1,17.82,2.05l2.53.44c1.15.2,2.3.43,3.44.66a230.94,230.94,0,0,1,29.63,8.15,146.92,146.92,0,0,1,21.35,9.52l1.73.93c4.93,2.69,7.61,8.67,7.19,14.24,0,.33-.06.65-.1,1a6.51,6.51,0,0,1-.13.77,10.48,10.48,0,0,1-.25,1.14c-1.83,6.65-5.56,11.71-13.31,13.87-4.08-.94-8.45-1.24-12.2-2.93a190.68,190.68,0,0,0-37.67-12.56l-2.59-.54-.78-.15a175,175,0,0,0-21.33-2.8,15.66,15.66,0,0,1-12.75-7.72C1035.85,483,1034.94,478.66,1036,474.22Zm-309.16,8.71A150.48,150.48,0,0,1,750,472.48c17.33-5.94,35.12-10.23,53.51-11.25,7.52-.42,14.24,1.56,18.1,8.9,3.06,5.83,2.53,11.62-.77,17.1A15.66,15.66,0,0,1,808,495a182.67,182.67,0,0,0-62.42,15.93c-3.75,1.68-8.12,2-12.2,2.89-7.75-2.18-11.47-7.25-13.28-13.91C718.45,493.65,721.13,486.06,726.88,482.93Zm477.12,330c-14.84,22.93-34.06,41.73-56.16,57.56-62.86,45-133.34,67.81-210.22,70.5q-4,.13-8,.11c-16.35-.06-32.82-1.92-49.08-3.92-42.47-5.23-82.51-18.79-120.67-37.92-33-16.54-62.88-37.36-87.35-65.28-23.08-26.34-38.93-56.13-40-91.92a131.51,131.51,0,0,1,3.47-33c4.42-19.36,18.45-28.42,37.35-30.67,17-2,33.82.43,50.57,3.34,11.3,2,22.58,4.38,34,5.31,20.94,1.71,46.95-10.45,57.84-26.6-7.47-1.41-14.59-2.66-21.68-4.09q-32.55-6.55-65.08-13.21c-7.86-1.6-10.55-4.65-10.33-12.62.41-15.27-.51-30.79,2-45.74,6-35.95,42-61.5,78.21-58.11,48.66,4.55,66.21,65.41,67.14,68.82a89.23,89.23,0,0,1,2.48,12.66c18.54-9.69,38.08-15.93,58.9-15.83.76,0,1.52,0,2.28,0h.29a110.65,110.65,0,0,1,36.08,5.34,153.75,153.75,0,0,1,24.84,10.47,89.23,89.23,0,0,1,2.48-12.66c.93-3.41,18.48-64.27,67.14-68.82,36.23-3.39,72.26,22.16,78.21,58.11,2.47,15,1.55,30.47,2,45.74a21.45,21.45,0,0,1-.25,4.25c-.83,4.89-3.8,7.09-10.08,8.37q-32.54,6.63-65.08,13.21c-7,1.42-14.11,2.66-21.54,4.06,3.9,5.66,8.87,10,14.21,13.83.71.52,1.43,1,2.15,1.51,12.29,7.75,27.86,12.39,41.33,11.29,11.4-.93,22.68-3.35,34-5.31,16.75-2.91,33.53-5.36,50.57-3.34,15.4,1.83,27.57,8.19,33.94,21a53,53,0,0,1,6.2,18.58C1231.39,752.47,1222.76,784,1204,812.92Z" transform="translate(-481.12 -129.43)"/><path class="cls-3" d="M1064.26,338.62c-4.87,13.42-9.22,27.06-14.76,40.19-5.43,12.84-15.81,20.29-29.6,22.66-5.57,1-11.18,1.75-16.8,2.26-3.18.29-4.64,1.91-5.58,4.67q-18.3,53.75-36.66,107.48c-1.51,4.4-2.9,8.85-4.64,13.16a25.46,25.46,0,0,1-24.54,15.63,24.9,24.9,0,0,1-23-17Q893,481.3,877.48,434.88c-3-9-6.18-17.94-9-27-.89-2.85-2.41-3.82-5.18-4.36-9.12-1.77-18.45-3-27.16-6.07-9.87-3.43-16.34-11.24-19.94-21.09-4.73-13-9.26-26-13.87-39l37.06-13.43c4,11.27,8.13,22.51,12,33.82,1.09,3.17,2.7,4.82,6.21,5.24q18,2.21,36,5.06a6.13,6.13,0,0,1,3.91,3.48c8.29,23,16.38,46.05,24.54,69.08,3.58,10.12,7.23,20.23,11.18,31.26,3.32-9.11,6.25-17.17,9.19-25.23,9-24.78,18-49.58,27.15-74.29a7.19,7.19,0,0,1,4.7-3.81c10-1.74,20-3.5,30-4.34,7.1-.59,11.3-2.92,13.25-10.3,2.61-9.91,6.42-19.5,9.71-29.23q16.21,6,32.43,12C1061.26,337.25,1062.75,338,1064.26,338.62Z" transform="translate(-481.12 -129.43)"/><path class="cls-4" d="M1370.94,387.57c-3.71-7-7.4-14-11.15-20.91-1.09-2-2.35-4-3.53-5.94,3.26-23.06,7.14-46.06,9.62-69.2,2.43-22.51,2.26-45.14-2.34-67.5-3-14.37-7.92-27.81-18.67-38.44-7.46-7.37-16.19-9.28-25.56-4.94A95.06,95.06,0,0,0,1300.62,192c-16.44,12.9-29.77,28.91-43.19,44.8-3.29,3.9-6.78,7.64-10.18,11.44a310.73,310.73,0,0,0-58.79-23.84c11.21-11.35,22.24-22.89,33.7-34,16.88-16.33,34.17-32.28,54.47-44.32a133.87,133.87,0,0,1,25.75-11.75c14.94-5,28.73-1.86,41.14,8.09,19.65,15.74,30.06,36.91,36,60.66,7.42,29.7,7.69,59.89,5.55,90.22C1382.82,325.07,1377.69,356.44,1370.94,387.57Z" transform="translate(-481.12 -129.43)"/><path class="cls-4" d="M679.07,222.47c-20.27,6.4-40.18,13.68-58.94,23.81-1.25-1.31-2.55-2.57-3.73-3.94-10.76-12.45-21.18-25.2-32.33-37.28-9.69-10.5-20.14-20.34-33.46-26.34-11.62-5.24-20.52-3.41-29.29,5.92-10.07,10.71-14.7,24-17.54,38A205.19,205.19,0,0,0,501,283.74c2.44,24.78,6.09,49.44,9.21,74.15l-14.14,27c-3.65-20.93-7.87-41.78-10.81-62.81-4.05-29-5.48-58.27-2.72-87.53,2.59-27.45,8.54-53.92,25-76.91a78.79,78.79,0,0,1,23.84-22.41c15.49-9.17,31-6.33,46.28.74,20.17,9.34,37.09,23.32,53.1,38.33s31.07,30.5,46.54,45.82A20,20,0,0,1,679.07,222.47Z" transform="translate(-481.12 -129.43)"/><path class="cls-5" d="M1027.29,324.64c-3.29,9.73-7.1,19.32-9.71,29.23-2,7.38-6.15,9.71-13.25,10.3-10.07.84-20.07,2.6-30,4.34a7.19,7.19,0,0,0-4.7,3.81c-9.19,24.71-18.14,49.51-27.15,74.29-2.94,8.06-5.87,16.12-9.19,25.23-4-11-7.6-21.14-11.18-31.26-8.16-23-16.25-46.09-24.54-69.08a6.13,6.13,0,0,0-3.91-3.48q-18-2.85-36-5.06c-3.51-.42-5.12-2.07-6.21-5.24-3.9-11.31-8-22.55-12-33.82,15.43-3.53,30.85-7.14,46.32-10.53,3.53-.78,7.22-.81,10.84-1.19l6.92,19.47L860,325.44c2.41,6.77,4.21,12.3,6.43,17.67.47,1.16,2.34,2.25,3.71,2.46,12.15,1.87,24.36,3.38,36.48,5.42a7.87,7.87,0,0,1,5.11,4.23c4.59,12.14,8.75,24.44,13.07,36.68,2.74,7.76,5.52,15.5,8.61,24.16,7.59-20.83,14.92-40.54,21.85-60.4,1.17-3.36,2.88-4.28,5.94-4.69,11.7-1.55,23.39-3.16,35-5,1.83-.29,4.36-1.58,5-3.07,2.19-5.17,3.68-10.64,5.44-16l.45-.43-.56.27c-2.44.1-4.92,0-7.33.33-11.56,1.52-23.1,3.14-35.49,4.85l7.47-19.51Z" transform="translate(-481.12 -129.43)"/><path class="cls-6" d="M971.21,312.39l-7.47,19.51c12.39-1.71,23.93-3.33,35.49-4.85,2.41-.32,4.89-.23,7.33-.33l.11.16c-1.76,5.36-3.25,10.83-5.44,16-.63,1.49-3.16,2.78-5,3.07-11.65,1.86-23.34,3.47-35,5-3.06.41-4.77,1.33-5.94,4.69-6.93,19.86-14.26,39.57-21.85,60.4-3.09-8.66-5.87-16.4-8.61-24.16-4.32-12.24-8.48-24.54-13.07-36.68a7.87,7.87,0,0,0-5.11-4.23c-12.12-2-24.33-3.55-36.48-5.42-1.37-.21-3.24-1.3-3.71-2.46-2.22-5.37-4-10.9-6.43-17.67l43.47,6.21-6.92-19.47L916,310.8c5.71,16.44,11.42,32.88,17.55,50.56,2.46-6.81,4.51-12.33,6.45-17.89,3.83-11,7.6-21.92,11.39-32.88Z" transform="translate(-481.12 -129.43)"/><path class="cls-7" d="M951.4,310.59c-3.79,11-7.56,21.93-11.39,32.88-1.94,5.56-4,11.08-6.45,17.89-6.13-17.68-11.84-34.12-17.55-50.56Z" transform="translate(-481.12 -129.43)"/><path class="cls-8" d="M1247.25,248.19c3.4-3.8,6.89-7.54,10.18-11.44,13.42-15.89,26.75-31.9,43.19-44.8a95.06,95.06,0,0,1,18.69-11.31c9.37-4.34,18.1-2.43,25.56,4.94,10.75,10.63,15.7,24.07,18.67,38.44,4.6,22.36,4.77,45,2.34,67.5-2.48,23.14-6.36,46.14-9.62,69.2-3,14.14-5.78,28.36-9.24,42.4-3.82,15.43-8.21,30.73-12.54,46q-5.48,19.37-11.41,38.59c-13,42.37-41,68.78-84.26,78.91-4.53,1.06-5.83-.24-6.32-4.59-3.71-32.59-13.7-63.35-28.81-92.3a281.63,281.63,0,0,0-65.83-83.13c-1.75-1.51-3.4-3.12-5.76-5.29,3.12-2.83,6.13-5.27,8.81-8,13.86-14.29,28.41-28,41.25-43.16,21.06-24.86,41-50.67,61.36-76.12A59.75,59.75,0,0,0,1247.25,248.19Z" transform="translate(-481.12 -129.43)"/><path class="cls-8" d="M510.21,357.89c-3.12-24.71-6.77-49.37-9.21-74.15a205.19,205.19,0,0,1,2.78-61.11c2.84-14,7.47-27.28,17.54-38,8.77-9.33,17.67-11.16,29.29-5.92,13.32,6,23.77,15.84,33.46,26.34,11.15,12.08,21.57,24.83,32.33,37.28,1.18,1.37,2.48,2.63,3.73,3.94,6.26,8.37,12.42,16.82,18.81,25.1,8,10.37,16.19,20.6,24.33,30.88,20.7,26.18,41.47,52.31,67.28,73.82.88.74,1.61,1.66,2.84,2.95-58.09,48.77-94.07,110-103.78,187-8.35-2.68-15.88-4.56-23-7.48-21.17-8.73-37.8-23.14-50.43-42.17-7.44-11.21-11.56-23.89-15.34-36.65-11.78-39.72-22.57-79.69-30.2-120.45A11.16,11.16,0,0,0,510.21,357.89Z" transform="translate(-481.12 -129.43)"/><path class="cls-9" d="M913.47,715.05c-16.58-4-30.11-10-39.45-22.74-10.69-14.62-9.61-31.84,3-45,14.5-15.18,33.12-20.23,53.34-20.31,15.41-.06,29.91,3.64,43,12.11,26.61,17.17,26.61,48.72-.19,65.57C954.13,716.62,933.39,718.61,913.47,715.05Zm31-81.72-.57,1.12c-12.12-2.41-24.13-2.1-35.72,2.42-4.72,1.85-10.16,4-10.39,10.18s5.22,8.1,9.65,10.08c10.61,4.75,21.83,4.93,33.18,3.59,7.37-.87,14.39-2.56,20.3-7.41,4.37-3.58,4.81-8.64.15-11.66C955.9,638.31,950,636.06,944.47,633.33Z" transform="translate(-481.12 -129.43)"/><path class="cls-10" d="M944.47,633.33c5.56,2.73,11.43,5,16.6,8.32,4.66,3,4.22,8.08-.15,11.66-5.91,4.85-12.93,6.54-20.3,7.41-11.35,1.34-22.57,1.16-33.18-3.59-4.43-2-9.89-4-9.65-10.08s5.67-8.33,10.39-10.18c11.59-4.52,23.6-4.83,35.72-2.42Z" transform="translate(-481.12 -129.43)"/><path class="cls-11" d="M733.48,513.93c-7.75-2.16-11.48-7.22-13.32-13.87-1.7-6.21,1-13.81,6.69-17a152.4,152.4,0,0,1,23-10.51c17.32-6,35.09-10.34,53.48-11.41,7.52-.44,14.24,1.51,18.12,8.84,3.08,5.82,2.57,11.61-.71,17.1a15.65,15.65,0,0,1-12.74,7.76A183.06,183.06,0,0,0,745.67,511C741.93,512.69,737.56,513,733.48,513.93Z" transform="translate(-481.12 -129.43)"/><path class="cls-2" d="M927.29,592.31v.12l2.28-.09C928.81,592.32,928.05,592.3,927.29,592.31Zm128.5-131.13a24.87,24.87,0,0,0-8.17.72,15.19,15.19,0,0,0-8.58,5.91,15.37,15.37,0,0,1,8.64-5.88,25.11,25.11,0,0,1,8-.7,163.77,163.77,0,0,1,17.91,2A162.2,162.2,0,0,0,1055.79,461.18ZM1139,499.86c-1.81,6.66-5.53,11.73-13.28,13.91-4.08-.93-8.45-1.21-12.2-2.89a188.88,188.88,0,0,0-37.73-12.44A190.68,190.68,0,0,1,1113.49,511c3.75,1.69,8.12,2,12.2,2.93,7.75-2.16,11.48-7.22,13.31-13.87a10.48,10.48,0,0,0,.25-1.14C1139.19,499.24,1139.12,499.55,1139,499.86Z" transform="translate(-481.12 -129.43)"/><path class="cls-11" d="M1139.48,497.17c0,.33-.06.65-.1,1a6.51,6.51,0,0,1-.13.77,10.48,10.48,0,0,1-.25,1.14c-1.83,6.65-5.56,11.71-13.31,13.87-4.08-.94-8.45-1.24-12.2-2.93a190.68,190.68,0,0,0-37.67-12.56l-2.59-.54-.78-.15a175,175,0,0,0-21.33-2.87,15.65,15.65,0,0,1-12.74-7.76,17,17,0,0,1-2.34-12.9c.11-.42.23-.83.36-1.25s.27-.77.43-1.16.22-.54.34-.8.32-.66.49-1a16,16,0,0,1,1-1.67l.38-.54a15.19,15.19,0,0,1,8.58-5.91,24.87,24.87,0,0,1,8.17-.72,162.2,162.2,0,0,1,17.82,2.05l2.53.44c1.15.2,2.3.43,3.44.66a231.82,231.82,0,0,1,29.69,8.26,146.09,146.09,0,0,1,21.11,9.47l1.94,1C1137.18,485.77,1139.83,491.65,1139.48,497.17Z" transform="translate(-481.12 -129.43)"/><path class="cls-12" d="M1070,555.29c-6.07,7.94-3.85,19.36,4.12,24.34,7.76,4.83,18.66,2.11,23.35-6.39,14.15,19.16,13.64,41.53-2.85,59-16.07,17-43.64,20.19-63.64,7.24-19-12.3-26.61-35.48-18.37-56C1022,560,1044,549.85,1070,555.29Z" transform="translate(-481.12 -129.43)"/><path class="cls-12" d="M818.43,556.23c-6.17,6.87-5.69,16.68-.74,21.49,5.68,5.51,17.56,4.8,23.65-4.16,13.86,21.91,11.79,44.85-5.5,60.83-16.8,15.53-43.43,17.46-62.43,4.52-18.64-12.69-25.77-36.09-17.16-56.31C766.28,559.07,788.53,549.63,818.43,556.23Z" transform="translate(-481.12 -129.43)"/><path class="cls-12" d="M883.93,716.29" transform="translate(-481.12 -129.43)"/><path class="cls-2" d="M975.3,786.81" transform="translate(-481.12 -129.43)"/><path class="cls-13" d="M815,736.35c1.73-1.45,6.78.73,11.89,5,5,5.68,44.81,49.3,108.4,46.24,57.75-2.78,91.79-42,97.33-48.58,4.42-4.26,9.31-6,11.23-4.53,2.07,1.57,1.69,7.64-2.85,13.91-6.35,7.23-43.54,48.17-105.61,50.81-67.47,2.87-110.07-41.82-116-48.3C814.6,744,813.16,737.89,815,736.35Z" transform="translate(-481.12 -129.43)"/></svg>